<?xml version="1.0" encoding="UTF-8" standalone="no"?>
<svg
   version="1.0"
   width="1024pt"
   height="1024pt"
   viewBox="0 0 1024 1024"
   preserveAspectRatio="xMidYMid"
   id="svg5"
   xmlns="http://www.w3.org/2000/svg"
   xmlns:svg="http://www.w3.org/2000/svg">
  <defs
     id="defs5">
    <clipPath
       clipPathUnits="userSpaceOnUse"
       id="clipPath1">
      <path
         id="path6"
         style="fill-opacity:0.285714;stroke-width:0.75"
         d="M 67.5,400.5 H 990 v 291 H 67.5 Z" />
    </clipPath>
  </defs>
  <metadata
     id="metadata1">
Created by potrace 1.16, written by Peter Selinger 2001-2019
</metadata>
  <path
     d="m -1.5,548 v 512 h 512 512 V 548 36 h -512 -512 z m 210,-112.2 c 2.5,2.6 2.9,3.7 3.5,12.6 0.4,5.4 0.5,16.9 0.3,25.5 -0.6,17.3 -2.2,23.4 -8.9,34.7 -7.2,12 -22.4,24.3 -35.8,29 -6.1,2.2 -8.2,2.4 -28.6,2.4 -12.1,0 -23.7,-0.5 -25.7,-1 -4.5,-1.3 -7.8,-5.2 -7.8,-9.4 0,-4.4 4.4,-20.4 8.1,-29.3 12.7,-30.4 42,-55.5 75.6,-64.7 12.1,-3.4 15.7,-3.3 19.3,0.2 z m 41.5,-0.3 c 10.6,2.7 26.7,10 35.8,16.2 24.1,16.6 40.9,41.4 46.9,68.8 2.2,10.6 1.7,13 -3.5,16.9 -2.7,2 -4.1,2.1 -28,2.1 -25,0 -25.3,0 -31.3,-2.6 -21,-9 -38.4,-29.6 -41.4,-48.9 -1.1,-7.5 -1.2,-32 -0.1,-42.9 0.6,-6.3 1.1,-7.7 3.5,-9.7 3.4,-3 6,-3 18.1,0.1 z M 653.2,487 c 6,3.6 6.7,12.7 1.3,17.5 -2.5,2.3 -9.3,3 -13,1.5 -7.5,-3.1 -8,-15.6 -0.9,-19.6 3.5,-1.9 8.9,-1.7 12.6,0.6 z m -222.6,2.4 c 9.2,2 16.3,5.8 23.5,12.7 10.3,10 15.2,21.4 16.1,37.4 1.4,25.9 -12.4,46.1 -36.2,53.1 -4.9,1.4 -10.3,1.7 -29.5,1.8 l -23.5,0.1 -0.3,-53.3 -0.2,-53.2 h 21.7 c 14.9,0 23.9,0.5 28.4,1.4 z M 910.5,522 v 33 h 6 6 v 9 9 h -6 -6 v 10.5 10.5 h -10 -10 V 583.5 573 h -25 -25 v -9.1 -9.1 l 19.7,-27.7 c 10.8,-15.2 21.4,-30 23.5,-32.9 l 3.9,-5.2 h 11.4 11.5 z m -196.9,-4.3 c 2.5,1.1 6.2,3.5 8.2,5.3 l 3.7,3.2 v -4.6 -4.6 h 9 9 v 39 c 0,23.7 -0.4,40.8 -1.1,43.9 -2.1,10.1 -9.3,17.7 -20.8,22.3 -4.5,1.7 -7.7,2.2 -16.1,2.2 -12.3,0.1 -18.8,-2 -26,-8.1 -4.2,-3.6 -10,-10.8 -10,-12.4 0,-0.4 3.8,-2 8.4,-3.5 l 8.4,-2.7 3.3,3.8 c 6.6,7.5 17.2,9.6 25.9,5.2 6.2,-3.1 9,-8.7 9,-18 v -6.9 l -4.1,3.6 c -5.9,5 -12.4,6.9 -21.8,6.4 -12.2,-0.7 -21,-6.7 -26.4,-17.9 -10.4,-21.5 -1.7,-49.2 17.7,-56.9 6.5,-2.6 17,-2.3 23.7,0.7 z m -185.7,-0.3 c 15.4,4.7 24.6,18.1 24.6,36.2 v 7.4 h -27.1 -27.1 l 0.7,2.7 c 2.5,10.1 10.2,16.3 20.2,16.3 3.9,0 10.8,-3.2 12.2,-5.8 2.6,-4.4 2.3,-4.4 11.9,-3.1 l 9.1,1.2 -1.6,3.1 c -6.7,13.3 -21.2,21.4 -36.8,20.4 -24,-1.6 -39.8,-24.5 -34.4,-50 3.8,-18 18,-29.7 36,-29.8 4.2,0 9.7,0.6 12.3,1.4 z m 77.8,0.4 c 7.2,2.6 13.2,7.4 15.6,12.3 3.9,8.3 3.8,8.5 -1.4,9.3 -8.4,1.1 -13.4,0.8 -13.4,-0.9 0,-2.6 -4.5,-6.3 -9,-7.5 -8.4,-2.3 -16,1 -16,6.8 0,4.5 2.9,6.2 16.7,9.8 15.4,4.1 20.9,6.7 24.5,12 8.3,11.8 2.2,27.5 -12.8,33.5 -8.4,3.3 -24.3,3.3 -32.6,0.1 -7,-2.8 -13.3,-8.8 -14.9,-14.1 -1.8,-6 -0.9,-7.1 5.4,-7.1 3,0 6.7,-0.2 8.3,-0.6 2.5,-0.4 3.2,0 4.6,2.5 2.9,5.2 7.3,7.3 15,6.9 7.9,-0.4 10.8,-2.4 10.8,-7.4 0,-4.5 -3.4,-6.9 -12.8,-8.9 -18.3,-3.9 -25.6,-7.7 -29.1,-14.8 -5.1,-10.5 -0.8,-24.1 9.4,-29.5 8.4,-4.4 22.9,-5.5 31.7,-2.4 z m 207.3,1 c 5.3,2.8 9,6.4 11.8,11.5 2.1,4 2.2,5.3 2.5,33.9 l 0.3,29.8 h -9 -9.1 v -21.3 c 0,-26.9 -0.8,-32.1 -5.4,-36.4 -5.8,-5.4 -14.7,-5.6 -20.7,-0.6 -5.5,4.7 -5.9,6.8 -5.9,33.8 V 594 H 768 758.5 V 555.5 517 h 9.5 9.5 v 4.6 4.6 l 4.1,-3.6 c 2.3,-1.9 6,-4.2 8.3,-5 5.8,-2.2 17.9,-1.6 23.1,1.2 z m -156.5,36.5 c 0,21.1 -0.2,38.6 -0.4,38.8 -0.2,0.2 -4.5,0.3 -9.5,0.1 l -9.1,-0.3 V 555.4 517 h 9.5 9.5 z m -490.7,1.4 c 11.5,3.3 25.8,13.5 33.6,23.8 11.1,14.7 13.7,25.8 12.9,55.6 -0.5,17.1 -0.7,18.9 -2.7,21.7 -3.1,4.4 -6.4,4.7 -17.9,1.8 -34.2,-8.6 -61,-30.2 -75.8,-61.1 -5.3,-10.9 -10.4,-27.2 -10.4,-33 0,-3.5 2.1,-6.9 5.3,-8.7 5,-2.9 45.3,-3 55,-0.1 z m 158.3,-1.1 c 6,0.7 10,5.1 9.7,10.9 -0.4,12 -9.5,34.9 -19,48.4 -14.3,20 -37.6,36.5 -61.7,43.5 -13.6,3.9 -17.5,4.2 -20.9,1.4 -2.6,-2.1 -3,-3.3 -3.9,-11.3 -0.5,-5 -0.8,-16.4 -0.5,-25.5 0.3,-13.7 0.8,-17.6 2.6,-23 8.6,-25 30.3,-43.1 54.6,-45.3 4.8,-0.5 33.4,0.2 39.1,0.9 z"
     id="path1"
     style="fill:#000000;stroke:none;stroke-width:0.1"
     clip-path="url(#clipPath1)" />
  <path
     d="M 400.5,541.4 V 576 h 10.3 c 17.2,0 26.7,-3.7 32.7,-12.8 4.2,-6.4 5.4,-11.3 5.3,-21.7 -0.1,-15.3 -5.7,-25.6 -17,-31.2 -5.1,-2.5 -7,-2.8 -18.5,-3.1 l -12.8,-0.4 z"
     id="path2"
     style="fill:#000000;stroke:none;stroke-width:0.1" />
  <path
     d="m 876.6,535 c -7.2,10.5 -13.1,19.3 -13.1,19.5 0,0.3 6.1,0.5 13.5,0.5 h 13.5 v -19.5 c 0,-10.7 -0.2,-19.5 -0.4,-19.5 -0.2,0 -6.2,8.6 -13.5,19 z"
     id="path3"
     style="fill:#000000;stroke:none;stroke-width:0.1" />
  <path
     d="m 695.8,534.9 c -5.1,3.7 -7.6,9 -8.1,17.3 -0.9,14.1 6.3,23.1 18.3,23.1 11.5,0 18.9,-8.6 18.9,-21.8 0,-13.6 -7.1,-21.5 -19.2,-21.5 -4.9,0 -6.6,0.5 -9.9,2.9 z"
     id="path4"
     style="fill:#000000;stroke:none;stroke-width:0.1" />
  <path
     d="m 509.9,532.4 c -3.2,1.4 -10.4,9.1 -10.4,11.2 0,0.7 -0.3,1.9 -0.6,2.8 -0.5,1.4 1.4,1.6 17.6,1.6 h 18.3 l -0.7,-3.2 c -0.8,-4.3 -5.3,-9.8 -9.7,-12 -4,-2.1 -10.2,-2.3 -14.5,-0.4 z"
     id="path5"
     style="fill:#000000;stroke:none;stroke-width:0.1" />
  <rect
     style="fill:#000000;fill-opacity:0.138996;stroke-width:0.814215"
     id="rect5"
     width="909"
     height="297"
     x="91.5"
     y="408" />
</svg>
