<?xml version="1.0" encoding="UTF-8" standalone="no"?>
<!DOCTYPE svg PUBLIC "-//W3C//DTD SVG 1.1//EN" "http://www.w3.org/Graphics/SVG/1.1/DTD/svg11.dtd">
<svg version="1.1" xmlns:xl="http://www.w3.org/1999/xlink" xmlns:dc="http://purl.org/dc/elements/1.1/" xmlns="http://www.w3.org/2000/svg" viewBox="304 344 76 76" width="76" height="76">
  <defs/>
  <g id="Canvas_1" stroke-opacity="1" fill="none" fill-opacity="1" stroke-dasharray="none" stroke="none">
    <title>Canvas 1</title>
    <rect fill="white" x="304" y="344" width="76" height="76"/>
    <g id="Canvas_1_Layer_1">
      <title>Layer 1</title>
      <g id="Graphic_6">
        <title>Settings Applications</title>
        <path d="M 322.5705 358.1783 C 320.3705 358.1783 318.5705 359.9783 318.5705 362.1783 C 318.5705 364.3783 320.3705 366.1783 322.5705 366.1783 C 324.7705 366.1783 326.5705 364.3783 326.5705 362.1783 C 326.5705 359.9783 324.7705 358.1783 322.5705 358.1783 Z M 336.5705 344.1783 L 308.5705 344.1783 C 306.3505 344.1783 304.5705 345.9783 304.5705 348.1783 L 304.5705 376.1783 C 304.5705 378.3783 306.3505 380.1783 308.5705 380.1783 L 336.5705 380.1783 C 338.7905 380.1783 340.5705 378.3783 340.5705 376.1783 L 340.5705 348.1783 C 340.5705 345.9783 338.7905 344.1783 336.5705 344.1783 Z M 333.0705 362.1783 C 333.0705 362.6383 333.0305 363.0983 332.9705 363.5383 L 335.9305 365.8583 C 336.1905 366.0783 336.2705 366.4583 336.0905 366.7583 L 333.2905 371.5983 C 333.1105 371.8983 332.7505 372.0183 332.4305 371.8983 L 328.9505 370.4983 C 328.2305 371.0583 327.4305 371.5183 326.5905 371.8783 L 326.0705 375.5783 C 326.0105 375.9183 325.7105 376.1783 325.3705 376.1783 L 319.7705 376.1783 C 319.4305 376.1783 319.1305 375.9183 319.0705 375.5983 L 318.5505 371.8983 C 317.6905 371.5383 316.9105 371.0783 316.1905 370.5183 L 312.7105 371.9183 C 312.3905 372.0383 312.0305 371.9183 311.8505 371.6183 L 309.0505 366.7783 C 308.8705 366.4783 308.9505 366.0983 309.2105 365.8783 L 312.1705 363.5583 C 312.1105 363.0983 312.0705 362.6383 312.0705 362.1783 C 312.0705 361.7183 312.1105 361.2583 312.1705 360.8183 L 309.2105 358.4983 C 308.9505 358.2783 308.8705 357.8983 309.0505 357.5983 L 311.8505 352.7583 C 312.0305 352.4583 312.3905 352.3383 312.7105 352.4583 L 316.1905 353.8583 C 316.9105 353.2983 317.7105 352.8383 318.5505 352.4783 L 319.0705 348.7783 C 319.1305 348.4383 319.4305 348.1783 319.7705 348.1783 L 325.3705 348.1783 C 325.7105 348.1783 326.0105 348.4383 326.0705 348.7583 L 326.5905 352.4583 C 327.4505 352.8183 328.2305 353.2783 328.9505 353.8383 L 332.4305 352.4383 C 332.7505 352.3183 333.1105 352.4383 333.2905 352.7383 L 336.0905 357.5783 C 336.2705 357.8783 336.1905 358.2583 335.9305 358.4783 L 332.9705 360.7983 C 333.0305 361.2583 333.0705 361.7183 333.0705 362.1783 Z" fill="#e5c823"/>
      </g>
      <g id="Graphic_7">
        <title>Settings Applications</title>
        <path d="M 361.66857 358.1783 C 359.46857 358.1783 357.66857 359.9783 357.66857 362.1783 C 357.66857 364.3783 359.46857 366.1783 361.66857 366.1783 C 363.86857 366.1783 365.66857 364.3783 365.66857 362.1783 C 365.66857 359.9783 363.86857 358.1783 361.66857 358.1783 Z M 375.66857 344.1783 L 347.66857 344.1783 C 345.44857 344.1783 343.66857 345.9783 343.66857 348.1783 L 343.66857 376.1783 C 343.66857 378.3783 345.44857 380.1783 347.66857 380.1783 L 375.66857 380.1783 C 377.88857 380.1783 379.66857 378.3783 379.66857 376.1783 L 379.66857 348.1783 C 379.66857 345.9783 377.88857 344.1783 375.66857 344.1783 Z M 372.16857 362.1783 C 372.16857 362.6383 372.12857 363.0983 372.06857 363.5383 L 375.02857 365.8583 C 375.28857 366.0783 375.36857 366.4583 375.18857 366.7583 L 372.38857 371.5983 C 372.20857 371.8983 371.84857 372.0183 371.52857 371.8983 L 368.04857 370.4983 C 367.32857 371.0583 366.52857 371.5183 365.68857 371.8783 L 365.16857 375.5783 C 365.10857 375.9183 364.80857 376.1783 364.46857 376.1783 L 358.86857 376.1783 C 358.52857 376.1783 358.22857 375.9183 358.16857 375.5983 L 357.64857 371.8983 C 356.78857 371.5383 356.00857 371.0783 355.28857 370.5183 L 351.80857 371.9183 C 351.48857 372.0383 351.12857 371.9183 350.94857 371.6183 L 348.14857 366.7783 C 347.96857 366.4783 348.04857 366.0983 348.30857 365.8783 L 351.26857 363.5583 C 351.20857 363.0983 351.16857 362.6383 351.16857 362.1783 C 351.16857 361.7183 351.20857 361.2583 351.26857 360.8183 L 348.30857 358.4983 C 348.04857 358.2783 347.96857 357.8983 348.14857 357.5983 L 350.94857 352.7583 C 351.12857 352.4583 351.48857 352.3383 351.80857 352.4583 L 355.28857 353.8583 C 356.00857 353.2983 356.80857 352.8383 357.64857 352.4783 L 358.16857 348.7783 C 358.22857 348.4383 358.52857 348.1783 358.86857 348.1783 L 364.46857 348.1783 C 364.80857 348.1783 365.10857 348.4383 365.16857 348.7583 L 365.68857 352.4583 C 366.54857 352.8183 367.32857 353.2783 368.04857 353.8383 L 371.52857 352.4383 C 371.84857 352.3183 372.20857 352.4383 372.38857 352.7383 L 375.18857 357.5783 C 375.36857 357.8783 375.28857 358.2583 375.02857 358.4783 L 372.06857 360.7983 C 372.12857 361.2583 372.16857 361.7183 372.16857 362.1783 Z" fill="#5f2762"/>
      </g>
      <g id="Graphic_8">
        <title>Settings Applications</title>
        <path d="M 322.5705 397.1269 C 320.3705 397.1269 318.5705 398.9269 318.5705 401.1269 C 318.5705 403.3269 320.3705 405.1269 322.5705 405.1269 C 324.7705 405.1269 326.5705 403.3269 326.5705 401.1269 C 326.5705 398.9269 324.7705 397.1269 322.5705 397.1269 Z M 336.5705 383.1269 L 308.5705 383.1269 C 306.3505 383.1269 304.5705 384.9269 304.5705 387.1269 L 304.5705 415.1269 C 304.5705 417.3269 306.3505 419.1269 308.5705 419.1269 L 336.5705 419.1269 C 338.7905 419.1269 340.5705 417.3269 340.5705 415.1269 L 340.5705 387.1269 C 340.5705 384.9269 338.7905 383.1269 336.5705 383.1269 Z M 333.0705 401.1269 C 333.0705 401.5869 333.0305 402.0469 332.9705 402.4869 L 335.9305 404.8069 C 336.1905 405.0269 336.2705 405.4069 336.0905 405.7069 L 333.2905 410.5469 C 333.1105 410.8469 332.7505 410.9669 332.4305 410.8469 L 328.9505 409.4469 C 328.2305 410.0069 327.4305 410.4669 326.5905 410.8269 L 326.0705 414.5269 C 326.0105 414.8669 325.7105 415.1269 325.3705 415.1269 L 319.7705 415.1269 C 319.4305 415.1269 319.1305 414.8669 319.0705 414.5469 L 318.5505 410.8469 C 317.6905 410.4869 316.9105 410.0269 316.1905 409.4669 L 312.7105 410.8669 C 312.3905 410.9869 312.0305 410.8669 311.8505 410.5669 L 309.0505 405.7269 C 308.8705 405.4269 308.9505 405.0469 309.2105 404.8269 L 312.1705 402.5069 C 312.1105 402.0469 312.0705 401.5869 312.0705 401.1269 C 312.0705 400.6669 312.1105 400.2069 312.1705 399.7669 L 309.2105 397.4469 C 308.9505 397.2269 308.8705 396.8469 309.0505 396.5469 L 311.8505 391.7069 C 312.0305 391.4069 312.3905 391.2869 312.7105 391.4069 L 316.1905 392.8069 C 316.9105 392.2469 317.7105 391.7869 318.5505 391.4269 L 319.0705 387.7269 C 319.1305 387.3869 319.4305 387.1269 319.7705 387.1269 L 325.3705 387.1269 C 325.7105 387.1269 326.0105 387.3869 326.0705 387.7069 L 326.5905 391.4069 C 327.4505 391.7669 328.2305 392.2269 328.9505 392.7869 L 332.4305 391.3869 C 332.7505 391.2669 333.1105 391.3869 333.2905 391.6869 L 336.0905 396.5269 C 336.2705 396.8269 336.1905 397.2069 335.9305 397.4269 L 332.9705 399.7469 C 333.0305 400.2069 333.0705 400.6669 333.0705 401.1269 Z" fill="#ee7f24"/>
      </g>
      <g id="Graphic_9">
        <title>Settings Applications</title>
        <path d="M 361.66857 397.1269 C 359.46857 397.1269 357.66857 398.9269 357.66857 401.1269 C 357.66857 403.3269 359.46857 405.1269 361.66857 405.1269 C 363.86857 405.1269 365.66857 403.3269 365.66857 401.1269 C 365.66857 398.9269 363.86857 397.1269 361.66857 397.1269 Z M 375.66857 383.1269 L 347.66857 383.1269 C 345.44857 383.1269 343.66857 384.9269 343.66857 387.1269 L 343.66857 415.1269 C 343.66857 417.3269 345.44857 419.1269 347.66857 419.1269 L 375.66857 419.1269 C 377.88857 419.1269 379.66857 417.3269 379.66857 415.1269 L 379.66857 387.1269 C 379.66857 384.9269 377.88857 383.1269 375.66857 383.1269 Z M 372.16857 401.1269 C 372.16857 401.5869 372.12857 402.0469 372.06857 402.4869 L 375.02857 404.8069 C 375.28857 405.0269 375.36857 405.4069 375.18857 405.7069 L 372.38857 410.5469 C 372.20857 410.8469 371.84857 410.9669 371.52857 410.8469 L 368.04857 409.4469 C 367.32857 410.0069 366.52857 410.4669 365.68857 410.8269 L 365.16857 414.5269 C 365.10857 414.8669 364.80857 415.1269 364.46857 415.1269 L 358.86857 415.1269 C 358.52857 415.1269 358.22857 414.8669 358.16857 414.5469 L 357.64857 410.8469 C 356.78857 410.4869 356.00857 410.0269 355.28857 409.4669 L 351.80857 410.8669 C 351.48857 410.9869 351.12857 410.8669 350.94857 410.5669 L 348.14857 405.7269 C 347.96857 405.4269 348.04857 405.0469 348.30857 404.8269 L 351.26857 402.5069 C 351.20857 402.0469 351.16857 401.5869 351.16857 401.1269 C 351.16857 400.6669 351.20857 400.2069 351.26857 399.7669 L 348.30857 397.4469 C 348.04857 397.2269 347.96857 396.8469 348.14857 396.5469 L 350.94857 391.7069 C 351.12857 391.4069 351.48857 391.2869 351.80857 391.4069 L 355.28857 392.8069 C 356.00857 392.2469 356.80857 391.7869 357.64857 391.4269 L 358.16857 387.7269 C 358.22857 387.3869 358.52857 387.1269 358.86857 387.1269 L 364.46857 387.1269 C 364.80857 387.1269 365.10857 387.3869 365.16857 387.7069 L 365.68857 391.4069 C 366.54857 391.7669 367.32857 392.2269 368.04857 392.7869 L 371.52857 391.3869 C 371.84857 391.2669 372.20857 391.3869 372.38857 391.6869 L 375.18857 396.5269 C 375.36857 396.8269 375.28857 397.2069 375.02857 397.4269 L 372.06857 399.7469 C 372.12857 400.2069 372.16857 400.6669 372.16857 401.1269 Z" fill="#7fbb47"/>
      </g>
      <g id="Graphic_15">
        <path d="M 325.82196 356.89395 C 328.83636 358.52354 329.82426 362.21046 328.0285 365.1289 C 326.23278 368.0474 322.3334 369.09222 319.31902 367.4626 C 316.30462 365.83303 315.3167 362.1461 317.11247 359.22765 C 318.9082 356.3092 322.80757 355.26435 325.82196 356.89395" fill="white"/>
      </g>
      <g id="Graphic_16">
        <path d="M 364.92004 356.89395 C 367.93444 358.52354 368.92234 362.21046 367.1266 365.1289 C 365.33086 368.0474 361.4315 369.09222 358.4171 367.4626 C 355.4027 365.83303 354.4148 362.1461 356.21055 359.22765 C 358.0063 356.3092 361.90565 355.26435 364.92004 356.89395" fill="white"/>
      </g>
      <g id="Graphic_17">
        <path d="M 364.92004 395.84256 C 367.93444 397.47215 368.92234 401.15907 367.1266 404.07753 C 365.33086 406.996 361.4315 408.04083 358.4171 406.41123 C 355.4027 404.78164 354.4148 401.0947 356.21055 398.17626 C 358.0063 395.2578 361.90565 394.21296 364.92004 395.84256" fill="white"/>
      </g>
      <g id="Graphic_18">
        <path d="M 325.82196 395.84256 C 328.83636 397.47215 329.82426 401.15907 328.0285 404.07753 C 326.23278 406.996 322.3334 408.04083 319.31902 406.41123 C 316.30462 404.78164 315.3167 401.0947 317.11247 398.17626 C 318.9082 395.2578 322.80757 394.21296 325.82196 395.84256" fill="white"/>
      </g>
      <g id="Graphic_11">
        <text transform="translate(309.6885 356.6783)" fill="#003776">
          <tspan font-family="Marker Felt" font-weight="bold" font-size="6" fill="#003776" x="0" y="5" xml:space="preserve">DISCOVER</tspan>
          <tspan font-family="Marker Felt" font-weight="bold" font-size="4" fill="#003776" x="5.884" y="10" xml:space="preserve">Purpose</tspan>
        </text>
      </g>
      <g id="Graphic_12">
        <text transform="translate(352.62057 356.6783)" fill="#003776">
          <tspan font-family="Marker Felt" font-weight="bold" font-size="6" fill="#003776" x="682121e-18" y="5" xml:space="preserve">DEFINE</tspan>
          <tspan font-family="Marker Felt" font-weight="bold" font-size="4" fill="#003776" x="1.372" y="10" xml:space="preserve">Strategy</tspan>
        </text>
      </g>
      <g id="Graphic_13">
        <text transform="translate(350.17557 395.6269)" fill="#003776">
          <tspan font-family="Marker Felt" font-weight="bold" font-size="6" fill="#003776" x="3943512e-19" y="5" xml:space="preserve">DEVELOP</tspan>
          <tspan font-family="Marker Felt" font-weight="bold" font-size="4" fill="#003776" x="2.391" y="10" xml:space="preserve">Capability</tspan>
        </text>
      </g>
      <g id="Graphic_14">
        <text transform="translate(311.7435 395.6269)" fill="#003776">
          <tspan font-family="Marker Felt" font-weight="bold" font-size="6" fill="#003776" x="0" y="5" xml:space="preserve">DELIVER</tspan>
          <tspan font-family="Marker Felt" font-weight="bold" font-size="4" fill="#003776" x="6.101" y="10" xml:space="preserve">Value</tspan>
        </text>
      </g>
    </g>
  </g>
</svg>
