<?xml version="1.0" encoding="UTF-8"?>
<svg width="512" height="128" viewBox="0 200 1024 256" xmlns="http://www.w3.org/2000/svg">
<g transform="translate(0.000000,1024.000000) scale(0.100000,-0.100000)" fill="#000000" stroke="none">
<path d="M0 5120 l0 -5120 5120 0 5120 0 0 5120 0 5120 -5120 0 -5120 0 0
-5120z m2100 1122 c25 -26 29 -37 35 -126 4 -54 5 -169 3 -255 -6 -173 -22
-234 -89 -347 -72 -120 -224 -243 -358 -290 -61 -22 -82 -24 -286 -24 -121 0
-237 5 -257 10 -45 13 -78 52 -78 94 0 44 44 204 81 293 127 304 420 555 756
647 121 34 157 33 193 -2z m415 3 c106 -27 267 -100 358 -162 241 -166 409
-414 469 -688 22 -106 17 -130 -35 -169 -27 -20 -41 -21 -280 -21 -250 0 -253
0 -313 26 -210 90 -384 296 -414 489 -11 75 -12 320 -1 429 6 63 11 77 35 97
34 30 60 30 181 -1z m4032 -515 c60 -36 67 -127 13 -175 -25 -23 -93 -30 -130
-15 -75 31 -80 156 -9 196 35 19 89 17 126 -6z m-2226 -24 c92 -20 163 -58
235 -127 103 -100 152 -214 161 -374 14 -259 -124 -461 -362 -531 -49 -14
-103 -17 -295 -18 l-235 -1 -3 533 -2 532 217 0 c149 0 239 -5 284 -14z m4799
-326 l0 -330 60 0 60 0 0 -90 0 -90 -60 0 -60 0 0 -105 0 -105 -100 0 -100 0
0 105 0 105 -250 0 -250 0 0 91 0 91 197 277 c108 152 214 300 235 329 l39 52
114 0 115 0 0 -330z m-1969 43 c25 -11 62 -35 82 -53 l37 -32 0 46 0 46 90 0
90 0 0 -390 c0 -237 -4 -408 -11 -439 -21 -101 -93 -177 -208 -223 -45 -17
-77 -22 -161 -22 -123 -1 -188 20 -260 81 -42 36 -100 108 -100 124 0 4 38 20
84 35 l84 27 33 -38 c66 -75 172 -96 259 -52 62 31 90 87 90 180 l0 69 -41
-36 c-59 -50 -124 -69 -218 -64 -122 7 -210 67 -264 179 -104 215 -17 492 177
569 65 26 170 23 237 -7z m-1857 3 c154 -47 246 -181 246 -362 l0 -74 -271 0
-271 0 7 -27 c25 -101 102 -163 202 -163 39 0 108 32 122 58 26 44 23 44 119
-31 l91 -12 -16 -31 c-67 -133 -212 -214 -368 -204 -240 16 -398 245 -344 500
38 180 180 297 360 298 42 0 97 -6 123 -14z m778 -4 c72 -26 132 -74 156 -123
39 -83 38 -85 -14 -93 -84 -11 -134 -8 -134 9 0 26 -45 63 -90 75 -84 23 -160
-10 -160 -68 0 -45 29 -62 167 -98 154 -41 209 -67 245 -120 83 -118 22 -275
-128 -335 -84 -33 -243 -33 -326 -1 -70 28 -133 88 -149 141 -18 60 -9 71 54
71 30 0 67 2 83 6 25 4 32 0 46 -25 29 -52 73 -73 150 -69 79 4 108 24 108 74
0 45 -34 69 -128 89 -183 39 -256 77 -291 148 -51 105 -8 241 94 295 84 44
229 55 317 24z m2073 -10 c53 -28 90 -64 118 -115 21 -40 22 -53 25 -339 l3
-298 -90 0 -91 0 0 213 c0 269 -8 321 -54 364 -58 54 -147 56 -207 6 -55 -47
-59 -68 -59 -338 l0 -245 -95 0 -95 0 0 385 0 385 95 0 95 0 0 -46 0 -46 41
36 c23 19 60 42 83 50 58 22 179 16 231 -12z m-1565 -365 c0 -211 -2 -386 -4
-388 -2 -2 -45 -3 -95 -1 l-91 3 0 385 0 384 95 0 95 0 0 -383z m-4907 -14
c115 -33 258 -135 336 -238 111 -147 137 -258 129 -556 -5 -171 -7 -189 -27
-217 -31 -44 -64 -47 -179 -18 -342 86 -610 302 -758 611 -53 109 -104 272
-104 330 0 35 21 69 53 87 50 29 453 30 550 1z m1583 11 c60 -7 100 -51 97
-109 -4 -120 -95 -349 -190 -484 -143 -200 -376 -365 -617 -435 -136 -39 -175
-42 -209 -14 -26 21 -30 33 -39 113 -5 50 -8 164 -5 255 3 137 8 176 26 230
86 250 303 431 546 453 48 5 334 -2 391 -9z"/>
<path d="M4020 5186 l0 -346 103 0 c172 0 267 37 327 128 42 64 54 113 53 217
-1 153 -57 256 -170 312 -51 25 -70 28 -185 31 l-128 4 0 -346z"/>
<path d="M8781 5250 c-72 -105 -131 -193 -131 -195 0 -3 61 -5 135 -5 l135 0
0 195 c0 107 -2 195 -4 195 -2 0 -62 -86 -135 -190z"/>
<path d="M6973 5251 c-51 -37 -76 -90 -81 -173 -9 -141 63 -231 183 -231 115
0 189 86 189 218 0 136 -71 215 -192 215 -49 0 -66 -5 -99 -29z"/>
<path d="M5114 5276 c-32 -14 -104 -91 -104 -112 0 -7 -3 -19 -6 -28 -5 -14
14 -16 176 -16 l183 0 -7 32 c-8 43 -53 98 -97 120 -40 21 -102 23 -145 4z"/>
</g>
</svg>